<?xml version="1.0" encoding="UTF-8" standalone="no"?>
<!-- Uploaded to: SVG Repo, www.svgrepo.com, Generator: SVG Repo Mixer Tools -->

<svg
   fill="#000000"
   width="800px"
   height="800px"
   viewBox="0 0 52 52"
   enable-background="new 0 0 52 52"
   xml:space="preserve"
   version="1.1"
   id="svg12"
   sodipodi:docname="document.svg"
   inkscape:version="1.1.1 (3bf5ae0d25, 2021-09-20)"
   xmlns:inkscape="http://www.inkscape.org/namespaces/inkscape"
   xmlns:sodipodi="http://sodipodi.sourceforge.net/DTD/sodipodi-0.dtd"
   xmlns="http://www.w3.org/2000/svg"
   xmlns:svg="http://www.w3.org/2000/svg"><defs
   id="defs16" /><sodipodi:namedview
   id="namedview14"
   pagecolor="#ffffff"
   bordercolor="#666666"
   borderopacity="1.0"
   inkscape:pageshadow="2"
   inkscape:pageopacity="0.0"
   inkscape:pagecheckerboard="0"
   showgrid="false"
   inkscape:zoom="1.0025"
   inkscape:cx="399.50125"
   inkscape:cy="400.49875"
   inkscape:window-width="1920"
   inkscape:window-height="991"
   inkscape:window-x="-9"
   inkscape:window-y="-9"
   inkscape:window-maximized="1"
   inkscape:current-layer="svg12" />
<g
   id="g10"
   style="fill:#ffffff">
	<g
   id="g4"
   style="fill:#ffffff">
		<path
   d="M44.4,19H33.2c-2.6,0-4.2-1.6-4.2-4.2V3.6C29,2.7,28.3,2,27.4,2H10.8C8.2,2,6,4.2,6,6.8v38.4    c0,2.6,2.2,4.8,4.8,4.8h30.4c2.6,0,4.8-2.2,4.8-4.8V20.6C46,19.7,45.3,19,44.4,19z"
   id="path2"
   style="fill:#ffffff" />
	</g>
	<g
   id="g8"
   style="fill:#ffffff">
		<path
   d="M45.7,12.9L35.1,2.3C34.9,2.1,34.5,2,34.2,2l0,0C33.6,2,33,2.5,33,3.1v8.5c0,1.8,1.6,3.4,3.4,3.4h8.5    c0.6,0,1.1-0.6,1.1-1.2l0,0C46,13.5,45.9,13.1,45.7,12.9z"
   id="path6"
   style="fill:#ffffff" />
	</g>
</g>
</svg>
